<svg width="400" height="400" viewBox="0 0 400 400" fill="none" xmlns="http://www.w3.org/2000/svg">
<rect x="235" y="94" width="55" height="242" fill="white"/>
<path fill-rule="evenodd" clip-rule="evenodd" d="M66.5918 331.641C81.4272 338.58 100.069 343 123.49 343L143.556 301.2L186.312 212.135L188.441 207.7L137.801 193.4L132.916 202.883L87.5121 291.028C64.2323 275.407 59.6398 247.3 59.6398 247.3H9C9 247.3 12.3928 306.288 66.5918 331.641Z" fill="white"/>
<path d="M329.911 140.6H381.092C381.092 140.6 381.092 57 279.813 57H165.323C69.5475 57 70.6484 129.6 70.6484 129.6C70.6484 129.6 62.9382 180.961 132.916 202.883L137.801 193.4L188.441 207.7L186.312 212.135L299.628 224.2C299.628 224.2 339.259 229.7 339.259 266C339.259 302.3 287.519 301.2 287.519 301.2H205.504H143.556L123.49 343H204.954H305.133C305.133 343 391 335.3 391 266C391 196.7 316.141 185.7 316.141 185.7C316.141 185.7 241.282 173.6 165.323 168.1C119.086 161.5 123.49 129.6 123.49 129.6C123.49 129.6 123.49 97.7 165.323 97.7H279.813C328.251 97.7 329.911 140.6 329.911 140.6Z" fill="white"/>
</svg>
